<?xml version="1.0" standalone="no"?>
<!DOCTYPE svg PUBLIC "-//W3C//DTD SVG 20010904//EN"
 "http://www.w3.org/TR/2001/REC-SVG-20010904/DTD/svg10.dtd">
<svg version="1.0" xmlns="http://www.w3.org/2000/svg"
 width="512.000000pt" height="512.000000pt" viewBox="0 0 512.000000 512.000000"
 preserveAspectRatio="xMidYMid meet">
<metadata>
Created by potrace 1.11, written by Peter Selinger 2001-2013
</metadata>
<g transform="translate(0.000000,512.000000) scale(0.100000,-0.100000)"
fill="#000000" stroke="none">
<path d="M2261 4072 c-41 -6 -85 -39 -114 -83 -13 -20 -33 -29 -94 -43 -568
-132 -1102 -537 -1383 -1051 -18 -33 -37 -67 -42 -75 -17 -31 -71 -158 -100
-235 -67 -180 -124 -455 -128 -611 0 -19 -5 -20 -117 -19 -175 1 -227 -18
-264 -100 -17 -36 -19 -71 -19 -353 0 -259 3 -319 15 -349 19 -46 41 -70 80
-91 27 -15 240 -16 2459 -17 2237 -1 2431 1 2465 16 44 20 75 53 90 98 7 23
11 138 11 345 0 282 -2 315 -19 352 -36 79 -92 100 -264 99 -60 -1 -110 2
-113 6 -2 5 -7 43 -10 86 -5 64 -32 219 -59 343 -19 85 -95 285 -155 405 -176
358 -443 657 -781 873 -53 34 -99 62 -102 62 -3 0 -28 13 -54 28 -42 24 -103
53 -208 97 -60 25 -212 73 -288 91 -66 15 -81 22 -95 46 -9 16 -34 41 -56 55
l-39 27 -296 1 c-163 0 -307 -1 -320 -3z"/>
</g>
</svg>
